<svg width="201" height="41" viewBox="0 0 201 41" fill="none" xmlns="http://www.w3.org/2000/svg">
<path fill-rule="evenodd" clip-rule="evenodd" d="M164.316 8.25146C165.642 8.25149 166.926 8.49075 168.167 8.97021C169.408 9.4215 170.437 10.1552 171.255 11.1704L171.509 8.54736H175.613V29.7856C175.613 32.07 175.246 34.0445 174.513 35.7085C173.779 37.4006 172.637 38.6986 171.086 39.6011C169.535 40.5035 167.546 40.9545 165.121 40.9546C163.542 40.9546 162.074 40.7014 160.721 40.1938C159.367 39.7144 158.21 38.9383 157.251 37.8667C156.32 36.8232 155.686 35.4828 155.348 33.8472H159.874C160.071 34.6084 160.453 35.2153 161.017 35.6665C161.581 36.1458 162.244 36.4847 163.005 36.6821C163.766 36.8795 164.529 36.978 165.29 36.978C166.728 36.978 167.884 36.6815 168.759 36.0894C169.633 35.4971 170.254 34.6934 170.621 33.6782C171.016 32.6912 171.213 31.5625 171.213 30.2935V27.7124C170.733 28.53 170.099 29.1931 169.31 29.7007C168.52 30.2083 167.673 30.5756 166.77 30.8013C165.896 30.9987 164.993 31.0972 164.062 31.0972C161.778 31.0971 159.917 30.5889 158.478 29.5737C157.04 28.5584 155.968 27.2043 155.263 25.5122C154.586 23.792 154.247 21.888 154.247 19.8013C154.247 17.6578 154.601 15.711 155.306 13.9624C156.039 12.214 157.153 10.8322 158.647 9.81689C160.142 8.77335 162.032 8.25152 164.316 8.25146ZM164.824 12.186C163.301 12.1861 162.088 12.5386 161.186 13.2437C160.283 13.9205 159.62 14.8375 159.197 15.9937C158.803 17.1216 158.605 18.3767 158.605 19.7583C158.605 21.1684 158.817 22.4388 159.24 23.5669C159.663 24.6946 160.326 25.5834 161.228 26.2319C162.159 26.8804 163.373 27.2046 164.867 27.2046C166.277 27.2045 167.447 26.8665 168.378 26.1899C169.337 25.4849 170.057 24.5532 170.536 23.397C171.015 22.2408 171.255 20.9711 171.255 19.5894C171.255 18.1794 171.015 16.9236 170.536 15.8237C170.057 14.6959 169.351 13.8073 168.421 13.1587C167.49 12.51 166.291 12.1861 164.824 12.186Z" fill="#2A2726"/>
<path d="M51.2841 8.54736H58.0966V12.4399H51.2841V22.8892C51.2842 23.6787 51.3551 24.3988 51.4961 25.0474C51.6653 25.6958 51.9756 26.2042 52.4267 26.5708C52.878 26.9372 53.5272 27.1344 54.373 27.1626C55.0216 27.1626 55.586 27.0493 56.0654 26.8237C56.5727 26.5982 56.9818 26.3448 57.292 26.063L58.9843 29.3208C58.4486 29.7437 57.8841 30.0965 57.292 30.3784C56.7281 30.6321 56.1358 30.8154 55.5156 30.9282C54.8951 31.041 54.2599 31.0972 53.6113 31.0972C51.2142 31.0971 49.4937 30.448 48.4502 29.1509C47.4349 27.8253 46.9268 25.9778 46.9267 23.6089V12.4399H43.373V8.54736H46.9267V2.07373H51.2841V8.54736Z" fill="#2A2726"/>
<path fill-rule="evenodd" clip-rule="evenodd" d="M71.2656 8.25146C73.5783 8.25151 75.5388 8.74479 77.1464 9.73193C78.7539 10.6909 79.9673 12.0311 80.7851 13.7515C81.6027 15.4717 82.0116 17.4743 82.0117 19.7583C82.0116 21.9863 81.5882 23.9617 80.7421 25.6821C79.9243 27.4021 78.7117 28.7418 77.1045 29.7007C75.5251 30.6313 73.5643 31.0971 71.2236 31.0972C68.911 31.0972 66.9504 30.6313 65.3427 29.7007C63.7353 28.7419 62.5082 27.4022 61.6621 25.6821C60.8442 23.9617 60.4346 21.9725 60.4345 19.7163C60.4346 17.432 60.8581 15.4436 61.7041 13.7515C62.5502 12.031 63.7771 10.6909 65.3847 9.73193C66.9924 8.74475 68.9528 8.25146 71.2656 8.25146ZM71.2236 12.228C69.7287 12.228 68.5009 12.5805 67.542 13.2856C66.5832 13.9625 65.8779 14.8656 65.4267 15.9937C65.0038 17.1216 64.792 18.3628 64.792 19.7163C64.792 21.0982 65.0037 22.3539 65.4267 23.4819C65.878 24.6099 66.5832 25.5131 67.542 26.1899C68.5009 26.8667 69.7289 27.2046 71.2236 27.2046C72.7463 27.2045 73.9736 26.8667 74.9043 26.1899C75.8631 25.5131 76.5682 24.61 77.0195 23.4819C77.4707 22.3257 77.6962 21.07 77.6963 19.7163C77.6962 18.3628 77.4706 17.1216 77.0195 15.9937C76.5683 14.8657 75.863 13.9625 74.9043 13.2856C73.9736 12.5806 72.7464 12.2281 71.2236 12.228Z" fill="#2A2726"/>
<path fill-rule="evenodd" clip-rule="evenodd" d="M120.97 30.8433H116.781L116.612 27.7974C116.105 28.5588 115.469 29.1931 114.708 29.7007C113.975 30.1801 113.156 30.5336 112.254 30.7593C111.352 30.9848 110.421 31.0972 109.462 31.0972C107.234 31.0972 105.386 30.6036 103.92 29.6167C102.482 28.6014 101.395 27.2325 100.662 25.5122C99.9571 23.7919 99.6045 21.8596 99.6045 19.7163C99.6045 17.5449 99.971 15.5987 100.704 13.8784C101.437 12.1297 102.552 10.7611 104.047 9.77393C105.542 8.75868 107.431 8.25146 109.716 8.25146C110.562 8.25148 111.408 8.34999 112.254 8.54736C113.128 8.7448 113.933 9.05499 114.666 9.47803C115.427 9.87287 116.076 10.4087 116.612 11.0854V0.932129H120.97V30.8433ZM110.182 12.186C108.659 12.186 107.445 12.5385 106.543 13.2437C105.64 13.9206 104.978 14.8373 104.555 15.9937C104.16 17.1499 103.962 18.4194 103.962 19.8013C103.962 20.8164 104.075 21.7759 104.301 22.6782C104.526 23.5523 104.879 24.3424 105.358 25.0474C105.866 25.724 106.515 26.26 107.305 26.6548C108.094 27.0213 109.054 27.2046 110.182 27.2046C111.62 27.2045 112.805 26.8519 113.735 26.147C114.694 25.442 115.413 24.5111 115.893 23.355C116.372 22.1987 116.612 20.943 116.612 19.5894C116.612 18.2076 116.372 16.9665 115.893 15.8667C115.441 14.7386 114.736 13.8494 113.777 13.2007C112.847 12.5239 111.648 12.1861 110.182 12.186Z" fill="#2A2726"/>
<path d="M133.676 8.25146C135.17 8.25149 136.525 8.49079 137.737 8.97021C138.95 9.44967 139.952 10.1549 140.741 11.0854C141.531 12.0162 141.997 13.1871 142.138 14.5972H138.033C137.864 13.8358 137.37 13.2291 136.553 12.7778C135.763 12.2984 134.761 12.0591 133.549 12.0591C133.126 12.0591 132.661 12.0867 132.153 12.1431C131.674 12.1995 131.208 12.3265 130.757 12.5239C130.306 12.7214 129.938 13.0039 129.656 13.3706C129.375 13.709 129.233 14.1604 129.233 14.7241C129.233 15.2597 129.361 15.7111 129.614 16.0776C129.896 16.4441 130.291 16.7408 130.799 16.9663C131.335 17.1919 131.941 17.3751 132.618 17.5161C133.577 17.7417 134.607 17.9535 135.707 18.1509C136.835 18.3483 137.752 18.56 138.457 18.7856C139.387 19.0395 140.178 19.4059 140.826 19.8853C141.503 20.3646 142.01 20.9716 142.349 21.7046C142.715 22.4378 142.899 23.3272 142.899 24.3706C142.899 25.7241 142.63 26.8382 142.095 27.7124C141.559 28.5584 140.84 29.236 139.937 29.7437C139.063 30.2513 138.075 30.6038 136.976 30.8013C135.904 30.9986 134.846 31.0972 133.803 31.0972C132.759 31.0972 131.715 30.9987 130.672 30.8013C129.629 30.6039 128.655 30.2512 127.753 29.7437C126.85 29.236 126.088 28.5584 125.468 27.7124C124.847 26.8383 124.452 25.7663 124.283 24.4976H128.726C128.951 25.174 129.346 25.7241 129.91 26.147C130.502 26.5699 131.152 26.8802 131.856 27.0776C132.59 27.275 133.31 27.3745 134.015 27.3745C134.437 27.3745 134.903 27.3459 135.41 27.2896C135.946 27.2331 136.454 27.1061 136.934 26.9087C137.413 26.7113 137.808 26.4294 138.118 26.063C138.428 25.6683 138.584 25.1459 138.584 24.4976C138.584 23.9901 138.442 23.5664 138.16 23.228C137.906 22.8897 137.54 22.6217 137.061 22.4243C136.609 22.1987 136.059 22.0293 135.41 21.9165C134.141 21.6345 132.773 21.3666 131.307 21.1128C129.868 20.8308 128.599 20.3511 127.499 19.6743C127.104 19.4206 126.752 19.1378 126.441 18.8276C126.131 18.4894 125.863 18.1087 125.638 17.686C125.412 17.2631 125.243 16.8108 125.13 16.3315C125.017 15.8523 124.961 15.3299 124.961 14.7661C124.961 13.61 125.187 12.623 125.638 11.8052C126.117 10.9872 126.766 10.3246 127.584 9.81689C128.402 9.28101 129.332 8.88519 130.376 8.63135C131.419 8.37755 132.519 8.25148 133.676 8.25146Z" fill="#2A2726"/>
<path d="M98.415 12.4399H97.0605C95.4531 12.44 94.1136 12.764 93.042 13.4126C91.9984 14.0613 91.2225 14.9642 90.7148 16.1206C90.2355 17.2769 89.9951 18.6025 89.9951 20.0972V30.8433H85.6377V8.54736H89.7412L89.9531 11.7622C90.5171 10.888 91.1662 10.1976 91.8994 9.68994C92.6327 9.18228 93.4362 8.815 94.3105 8.58936C95.1848 8.36374 96.1016 8.25148 97.0605 8.25146H98.415V12.4399Z" fill="#2A2726"/>
<path d="M150.547 30.8433H146.189V8.54736H150.547V30.8433Z" fill="#2A2726"/>
<path d="M191.661 8.25146C193.805 8.25149 195.483 8.71625 196.696 9.64697C197.937 10.5495 198.812 11.7766 199.319 13.3276C199.855 14.8506 200.123 16.5858 200.123 18.5317V30.8433H195.723V19.4204C195.723 18.5182 195.666 17.6294 195.554 16.7554C195.441 15.8813 195.201 15.105 194.835 14.4282C194.497 13.7232 194.002 13.1727 193.353 12.7778C192.705 12.3549 191.83 12.1431 190.73 12.1431C189.377 12.1431 188.234 12.5104 187.304 13.2437C186.373 13.9769 185.668 14.9638 185.188 16.2046C184.709 17.4454 184.469 18.8421 184.469 20.3931V30.8433H180.111V8.54736H184.258L184.469 11.6782C185.033 10.8603 185.71 10.2114 186.5 9.73193C187.29 9.22429 188.136 8.857 189.038 8.63135C189.94 8.37755 190.815 8.25151 191.661 8.25146Z" fill="#2A2726"/>
<path d="M148.347 0.000488281C149.108 0.000533885 149.771 0.269336 150.335 0.805176C150.927 1.31283 151.224 1.97567 151.224 2.79346C151.223 3.61096 150.942 4.28802 150.378 4.82373C149.842 5.3313 149.164 5.58541 148.347 5.58545C147.501 5.58541 146.809 5.33117 146.273 4.82373C145.766 4.28803 145.513 3.61094 145.513 2.79346C145.513 1.97558 145.781 1.31285 146.316 0.805176C146.852 0.269316 147.529 0.000528272 148.347 0.000488281Z" fill="#2A2726"/>
<path d="M28.8715 14.8443C28.0645 14.9422 26.9711 15.0955 25.4887 15.313C25.4908 15.3127 25.4915 15.3027 25.4936 15.3024L25.4985 15.2915C26.0182 14.016 26.3702 12.5289 25.3881 11.3794C24.878 10.7825 24.1958 10.515 23.5864 10.4712C20.7192 10.2658 16.6103 15.637 16.6264 18.2095C16.6295 18.7008 16.7629 19.1812 17.0058 19.6005C17.2287 19.9854 17.3198 20.4615 17.1084 20.8528C16.0472 22.8168 14.9683 24.7583 14.1352 26.2124C13.1013 28.0171 12.536 28.9333 12.1997 29.4185C11.5911 30.2963 10.7406 29.8887 10.4868 28.8824C10.3864 28.4842 10.2749 27.7955 10.2485 26.5474C10.2005 24.2772 10.2303 20.2418 10.4506 17.0005C10.5032 16.2275 10.561 15.5084 10.6279 14.8256C10.6634 14.4634 10.862 14.1379 11.165 13.9363C12.8924 12.7867 14.79 11.5265 16.7541 10.2251C17.9049 9.46259 18.2212 7.91183 17.4597 6.76025C16.6981 5.60831 15.1468 5.29227 13.9964 6.05624C13.778 6.20126 13.5605 6.34577 13.3439 6.48964C12.9641 6.7419 12.4821 6.38216 12.6212 5.94798C12.9155 5.02917 13.2239 4.10955 13.5225 3.18699C14.148 1.25432 12.3657 -0.461056 10.4169 0.112126C9.56274 0.363355 8.89 1.02407 8.6272 1.87476C8.17753 3.33037 7.61644 5.17171 6.95846 7.38333C6.72767 8.15905 6.53346 8.90885 6.36857 9.64963C6.12887 10.7265 5.51698 11.6931 4.59918 12.3053C3.60306 12.9697 2.73737 13.5475 2.04049 14.0132C1.67289 14.2589 1.35169 14.4736 1.07074 14.6615C-0.0759878 15.4283 -0.341937 16.9608 0.469205 18.0766C1.28149 19.194 2.85311 19.4484 4.01016 18.6937C4.1412 18.6082 4.27233 18.5228 4.40341 18.4374C4.81286 18.1706 5.35819 18.4818 5.33795 18.9701C5.21984 21.8196 5.21019 24.7937 5.24948 26.6529C5.2883 28.4893 5.51125 30.2778 6.33343 31.9365L6.3608 31.9917C7.3129 33.9178 9.29435 34.9587 11.391 35.0167C12.6696 35.0521 13.8274 34.4999 14.8618 33.7945C17.8622 31.7477 19.9666 26.8205 21.7155 23.0412C22.3835 21.5978 23.7318 20.5481 25.2818 20.1917C27.2209 19.7458 29.3938 19.4294 29.2221 20.8404C28.8917 21.7031 27.849 23.6359 26.0327 26.4536C25.6798 26.9655 25.3554 27.4051 25.0409 27.8108C24.3702 28.6759 24.4708 29.9171 25.3121 30.6175C26.5931 31.6842 28.521 31.5325 29.5095 30.1903C29.7225 29.9012 29.9431 29.592 30.1733 29.2574L30.1948 29.2271L30.2143 29.1958C32.352 25.8821 34.5628 22.6551 34.3598 18.5845C34.2041 15.4627 31.7563 14.4943 28.8715 14.8443Z" fill="#E9967B"/>
</svg>
